<svg width="24" height="58" viewBox="0 0 24 58" fill="none" xmlns="http://www.w3.org/2000/svg">
<g clip-path="url(#clip0_1_2)">
<path d="M1 2.34311L1 55.3992C1 56.1411 1.60137 56.7424 2.34319 56.7424H21.8195C22.5613 56.7424 23.1627 56.1411 23.1627 55.3992L23.1627 2.34311C23.1627 1.60128 22.5613 0.999916 21.8195 0.999916L2.34319 0.999916C1.60137 0.999916 1 1.60128 1 2.34311Z" fill="white" fill-opacity="0.5" stroke="#757575" stroke-width="0.961078"/>
<path d="M6.13965 8.47299V7.08219C6.13965 6.34213 6.73959 5.74219 7.47965 5.74219L16.2996 5.74219C17.0397 5.74219 17.6396 6.34213 17.6396 7.08219V8.47298C17.6396 9.21305 17.0397 9.81298 16.2996 9.81298H7.47965C6.73959 9.81298 6.13965 9.21305 6.13965 8.47299Z" fill="white" stroke="#757575"/>
</g>
<defs>
<clipPath id="clip0_1_2">
<rect width="58" height="24" fill="white" transform="matrix(0 1 1 0 0 0)"/>
</clipPath>
</defs>
</svg>
