<svg width="17" height="16" viewBox="0 0 17 16" fill="none" xmlns="http://www.w3.org/2000/svg">
<path d="M3.71313 0.5H13.7131C14.2654 0.5 14.7131 0.947715 14.7131 1.5V6C15.8177 6 16.7131 6.89543 16.7131 8V14C16.7131 15.1046 15.8177 16 14.7131 16H3.71313C2.05628 16 0.713135 14.6569 0.713135 13V8.5C0.713135 7.11929 1.83242 6 3.21313 6H2.71313V1.5C2.71313 0.947715 3.16085 0.5 3.71313 0.5Z" fill="white"/>
<path d="M15.3405 6.08451V2.66325C15.3405 0.696543 13.9679 0 12.6773 0H5.01531C3.72466 0 2.35206 0.696543 2.35206 2.66325V6.08451C1.40968 6.33035 0.713135 7.17029 0.713135 8.19462V13.685C0.713135 15.3035 1.79892 15.9385 2.86422 16C2.45449 16 3.01787 16 2.86422 16C3.27395 16 3.22274 16 3.60174 16H5.09726H12.6158C12.9795 16 12.5697 16 12.9795 16H12.6158C13.0256 16 12.5797 16 12.9795 16H14.8489C16.4263 15.9181 16.9999 14.7708 16.9999 13.685V8.17414C16.959 7.17029 16.2624 6.30986 15.3405 6.08451ZM3.08958 2.66325C3.08958 0.983355 4.29828 0.717029 5.01531 0.717029H12.6773C13.3943 0.717029 14.603 0.962868 14.603 2.64277V6.00256C13.4967 6.10499 12.6158 7.02689 12.6158 8.17414V8.6863H5.07677V8.17414C5.07677 7.02689 4.19585 6.10499 3.08958 6.00256V2.66325ZM12.5953 9.42382V11.9641H5.07677V9.42382H12.5953ZM13.2099 16H13.3329H14.0909H13.2099ZM16.2624 13.685C16.2624 14.4021 15.9756 15.283 14.644 15.283H14.0909H13.3329H4.35974H3.60174H3.0486C2.33157 15.283 1.45065 15.0166 1.45065 13.685V8.17414C1.45065 7.37516 2.10622 6.71959 2.9052 6.71959C3.70417 6.71959 4.35974 7.37516 4.35974 8.17414V12.3329C4.35974 12.5378 4.52363 12.7017 4.7285 12.7017H12.9846C13.1894 12.7017 13.3533 12.5378 13.3533 12.3329V8.17414C13.3533 7.37516 14.0089 6.71959 14.8079 6.71959C15.6069 6.71959 16.2624 7.37516 16.2624 8.17414V13.685Z" fill="black"/>
<g clip-path="url(#clip0_97_2318)">
<path d="M8.71315 2.00024C7.05889 2.00024 5.71313 3.34608 5.71313 5.00034C5.71327 6.65443 7.05909 8.00019 8.71315 8.00019C10.3674 8.00019 11.7132 6.65446 11.7132 5.00031C11.7131 3.34608 10.3674 2.00024 8.71315 2.00024ZM8.71315 2.41796C9.32639 2.41796 9.89026 2.63298 10.3337 2.99141L6.70433 6.62074C6.34595 6.17734 6.13091 5.6135 6.13086 5.00031C6.13086 3.57642 7.28928 2.41796 8.71315 2.41796ZM8.71315 7.58247C8.05265 7.58247 7.44938 7.33306 6.99222 6.92364L10.6366 3.2793C11.046 3.73646 11.2954 4.33979 11.2954 5.00034C11.2954 6.42413 10.137 7.58247 8.71315 7.58247Z" fill="#F15D5D"/>
</g>
<defs>
<clipPath id="clip0_97_2318">
<rect width="6" height="6" fill="white" transform="translate(5.71313 2)"/>
</clipPath>
</defs>
</svg>
