<svg width="32" height="32" viewBox="0 0 32 32" fill="none" xmlns="http://www.w3.org/2000/svg">
<path d="M11.9547 3.26038H5.2327C1.36855 3.26038 0 5.95723 0 8.49308V23.5472C0 26.083 1.36855 28.7799 5.2327 28.7799H11.9547C12.4377 30.6314 14.088 32 16.1006 32H26.888C30.0679 32 31.3157 29.8667 31.4365 27.7736C31.4365 28.5786 31.4365 27.4717 31.4365 27.7736C31.4365 26.9686 31.4365 27.0692 31.4365 26.3245V23.3862V8.61384C31.4365 7.89937 31.4365 8.7044 31.4365 7.89937V8.61384C31.4365 7.80881 31.4365 8.68487 31.4365 7.89937V4.22642C31.2755 1.12705 29.0214 1.10269e-06 26.888 1.10269e-06H16.0604C14.088 0.0805042 12.3975 1.44906 11.9547 3.26038ZM5.2327 27.3308C1.93208 27.3308 1.4088 24.956 1.4088 23.5472V8.49308C1.4088 7.08428 1.89182 4.70943 5.19245 4.70943H11.7937C11.995 6.88302 13.8063 8.61384 16.0604 8.61384H17.0667V23.4264H16.0604C13.8063 23.4264 11.995 25.1572 11.7937 27.3308H5.2327ZM18.5157 8.65409H23.5069V23.4264H18.5157V8.65409ZM31.4365 7.44654V7.20503V5.71572V7.44654ZM26.888 1.44906V1.48931C28.2969 1.48931 30.0277 2.01258 30.0277 4.62893V5.71572V7.20503V24.8352V26.3245V27.4113C30.0277 28.8201 29.5044 30.5509 26.888 30.5509H16.0604C14.4906 30.5509 13.2025 29.2629 13.2025 27.6931C13.2025 26.1233 14.4906 24.8352 16.0604 24.8352H24.2314C24.634 24.8352 24.956 24.5132 24.956 24.1107V7.88931C24.956 7.48679 24.634 7.16478 24.2314 7.16478H16.0604C14.4906 7.16478 13.2025 5.87673 13.2025 4.30692C13.2025 2.73711 14.4906 1.44906 16.0604 1.44906H26.888Z" fill="#757575"/>
</svg>
