<svg width="58" height="24" viewBox="0 0 58 24" fill="none" xmlns="http://www.w3.org/2000/svg">
<path d="M2.28622 0.858276H55.3424C56.0842 0.858276 56.6855 1.45965 56.6855 2.20147V21.6778C56.6855 22.4196 56.0842 23.021 55.3424 23.021H2.28622C1.5444 23.021 0.943031 22.4196 0.943031 21.6778V2.20147C0.943031 1.45964 1.5444 0.858276 2.28622 0.858276Z" fill="#FF4081" fill-opacity="0.24" stroke="#FF4081" stroke-width="0.961078"/>
<path d="M8.4161 5.99792H7.0253C6.28524 5.99792 5.6853 6.59786 5.6853 7.33793V16.1579C5.6853 16.898 6.28524 17.4979 7.0253 17.4979H8.4161C9.15616 17.4979 9.7561 16.898 9.7561 16.1579V7.33792C9.7561 6.59786 9.15616 5.99792 8.4161 5.99792Z" fill="white" stroke="#FF4081"/>
</svg>
