<svg width="58" height="24" viewBox="0 0 58 24" fill="none" xmlns="http://www.w3.org/2000/svg">
<path d="M2.28622 1H55.3424C56.0842 1 56.6855 1.60137 56.6855 2.34319V21.8195C56.6855 22.5613 56.0842 23.1627 55.3424 23.1627H2.28622C1.5444 23.1627 0.943031 22.5613 0.943031 21.8195V2.34319C0.943031 1.60137 1.5444 1 2.28622 1Z" fill="#9E9E9E" fill-opacity="0.24" stroke="#AFADAD" stroke-width="0.961078"/>
<path d="M8.4161 6.13965H7.0253C6.28524 6.13965 5.6853 6.73959 5.6853 7.47965V16.2996C5.6853 17.0397 6.28524 17.6396 7.0253 17.6396H8.4161C9.15616 17.6396 9.7561 17.0397 9.7561 16.2996V7.47965C9.7561 6.73959 9.15616 6.13965 8.4161 6.13965Z" fill="white" stroke="#AFADAD"/>
</svg>
