<svg width="32" height="32" viewBox="0 0 32 32" fill="none" xmlns="http://www.w3.org/2000/svg">
<path d="M0.982361 27.0704V5.49309C0.982361 4.9408 1.43008 4.49309 1.98236 4.49309H11.7886V2.56353C11.7886 1.45896 12.6841 0.563526 13.7886 0.563526H29.4364C30.541 0.563526 31.4364 1.45896 31.4364 2.56353V29C31.4364 30.6569 30.0933 32 28.4364 32H14.2887C12.9079 32 11.7886 30.8807 11.7886 29.5V28.0704H1.98236C1.43008 28.0704 0.982361 27.6227 0.982361 27.0704Z" fill="white"/>
<path d="M11.9547 3.26038H5.2327C1.36855 3.26038 0 5.95723 0 8.49308V23.5472C0 26.083 1.36855 28.7799 5.2327 28.7799H11.9547C12.4377 30.6314 14.088 32 16.1006 32H26.888C30.0679 32 31.3157 29.8667 31.4365 27.7736C31.4365 28.5786 31.4365 27.4717 31.4365 27.7736C31.4365 26.9686 31.4365 27.0692 31.4365 26.3245V23.3862V8.61384C31.4365 7.89937 31.4365 8.7044 31.4365 7.89937V8.61384C31.4365 7.80881 31.4365 8.68487 31.4365 7.89937V4.22642C31.2755 1.12704 29.0214 3.71729e-07 26.888 3.71729e-07H16.0604C14.088 0.0805035 12.3975 1.44906 11.9547 3.26038ZM5.2327 27.3308C1.93208 27.3308 1.4088 24.956 1.4088 23.5472V8.49308C1.4088 7.08428 1.89182 4.70943 5.19245 4.70943H11.7937C11.995 6.88302 13.8063 8.61384 16.0604 8.61384H17.0667V23.4264H16.0604C13.8063 23.4264 11.995 25.1572 11.7937 27.3308H5.2327ZM18.5157 8.65409H23.5069V23.4264H18.5157V8.65409ZM31.4365 7.44654V7.20503V5.71572V7.44654ZM26.888 1.44906C28.2969 1.44906 30.0277 2.01258 30.0277 4.62893V5.71572V7.20503V24.8352V26.3245V27.4113C30.0277 28.8201 29.5044 30.5509 26.888 30.5509H16.0604C14.4906 30.5509 13.2025 29.2629 13.2025 27.6931C13.2025 26.1233 14.4906 24.8352 16.0604 24.8352H24.2314C24.634 24.8352 24.956 24.5132 24.956 24.1107V7.88931C24.956 7.48679 24.634 7.16478 24.2314 7.16478H16.0604C14.4906 7.16478 13.2025 5.87673 13.2025 4.30692C13.2025 2.73711 14.4906 1.44906 16.0604 1.44906H26.888Z" fill="black"/>
<g clip-path="url(#clip0_156_2913)">
<path d="M3.92981 16.2817C3.92981 19.5319 6.57409 22.176 9.82434 22.176C13.0743 22.1758 15.7184 19.5315 15.7184 16.2817C15.7184 13.0315 13.0743 10.3873 9.82429 10.3873C6.57409 10.3873 3.92981 13.0315 3.92981 16.2817ZM4.75054 16.2817C4.75054 15.0768 5.173 13.9689 5.87724 13.0977L13.0081 20.2285C12.1369 20.9327 11.0291 21.3552 9.82429 21.3553C7.02664 21.3553 4.75054 19.0793 4.75054 16.2817ZM14.8976 16.2817C14.8976 17.5794 14.4076 18.7647 13.6032 19.6629L6.44288 12.5026C7.34109 11.6981 8.52649 11.2081 9.82434 11.2081C12.6218 11.2081 14.8976 13.4841 14.8976 16.2817Z" fill="#F15D5D"/>
</g>
<defs>
<clipPath id="clip0_156_2913">
<rect width="11.7887" height="11.7887" fill="white" transform="matrix(0 -1 1 0 3.92957 22.176)"/>
</clipPath>
</defs>
</svg>
