<svg width="24" height="58" viewBox="0 0 24 58" fill="none" xmlns="http://www.w3.org/2000/svg">
<g clip-path="url(#clip0_1_5)">
<path d="M0.858276 2.28622L0.858276 55.3424C0.858276 56.0842 1.45965 56.6855 2.20147 56.6855H21.6778C22.4196 56.6855 23.021 56.0842 23.021 55.3424L23.021 2.28622C23.021 1.5444 22.4196 0.943031 21.6778 0.943031L2.20147 0.943031C1.45964 0.943031 0.858276 1.5444 0.858276 2.28622Z" fill="#FF4081" fill-opacity="0.24" stroke="#FF4081" stroke-width="0.961078"/>
<path d="M5.99792 8.4161V7.0253C5.99792 6.28524 6.59786 5.6853 7.33793 5.6853L16.1579 5.6853C16.898 5.6853 17.4979 6.28524 17.4979 7.0253V8.4161C17.4979 9.15616 16.898 9.7561 16.1579 9.7561H7.33792C6.59786 9.7561 5.99792 9.15616 5.99792 8.4161Z" fill="white" stroke="#FF4081"/>
</g>
<defs>
<clipPath id="clip0_1_5">
<rect width="58" height="24" fill="white" transform="matrix(0 1 1 0 0 0)"/>
</clipPath>
</defs>
</svg>
