<svg width="24" height="58" viewBox="0 0 24 58" fill="none" xmlns="http://www.w3.org/2000/svg">
<g clip-path="url(#clip0_1_8)">
<path d="M1 2.28622L1 55.3424C1 56.0842 1.60137 56.6855 2.34319 56.6855H21.8195C22.5613 56.6855 23.1627 56.0842 23.1627 55.3424L23.1627 2.28622C23.1627 1.5444 22.5613 0.943031 21.8195 0.943031L2.34319 0.943031C1.60137 0.943031 1 1.5444 1 2.28622Z" fill="#9E9E9E" fill-opacity="0.24" stroke="#AFADAD" stroke-width="0.961078"/>
<path d="M6.13965 8.4161V7.0253C6.13965 6.28524 6.73959 5.6853 7.47965 5.6853L16.2996 5.6853C17.0397 5.6853 17.6396 6.28524 17.6396 7.0253V8.4161C17.6396 9.15616 17.0397 9.7561 16.2996 9.7561H7.47965C6.73959 9.7561 6.13965 9.15616 6.13965 8.4161Z" fill="white" stroke="#AFADAD"/>
</g>
<defs>
<clipPath id="clip0_1_8">
<rect width="58" height="24" fill="white" transform="matrix(0 1 1 0 0 0)"/>
</clipPath>
</defs>
</svg>
