<svg width="24" height="24" viewBox="0 0 24 24" fill="none" xmlns="http://www.w3.org/2000/svg">
<rect width="24" height="24" fill="white"/>
<path d="M22.8072 8.1024C22.092 6.6984 20.6352 5.7336 18.9552 5.7336H2.63997C1.58157 5.7336 0.719971 6.5952 0.719971 7.6536V15.8112C0.719971 16.8696 1.58157 17.7312 2.63997 17.7312H3.97917C4.20237 18.8544 5.19597 19.704 6.38397 19.704C7.57197 19.704 8.56317 18.8544 8.78877 17.7312H15.216C15.4392 18.8544 16.4328 19.704 17.6208 19.704C18.8088 19.704 19.8 18.8544 20.0256 17.7312H21.36C22.4184 17.7312 23.28 16.8696 23.28 15.8112V10.0608C23.28 9.4032 23.1288 8.7816 22.8648 8.2224C22.8504 8.1816 22.8312 8.1408 22.8072 8.1024ZM19.392 8.856H22.092C22.236 9.2304 22.32 9.636 22.32 10.0632V11.7384H19.392V8.856ZM6.38157 18.744C5.55837 18.744 4.89117 18.0744 4.89117 17.2536C4.89117 16.4304 5.56077 15.7632 6.38157 15.7632C7.20477 15.7632 7.87437 16.4328 7.87437 17.256C7.87437 18.0744 7.20477 18.744 6.38157 18.744ZM17.6184 18.744C16.7952 18.744 16.1256 18.0744 16.1256 17.2512C16.1256 16.428 16.7952 15.7584 17.6184 15.7584C18.4416 15.7584 19.1088 16.428 19.1112 17.2488C19.1088 18.0768 18.4392 18.744 17.6184 18.744ZM21.36 16.7736H20.0208C19.7976 15.6504 18.804 14.8008 17.616 14.8008C16.428 14.8008 15.4368 15.6504 15.2112 16.7736H8.78637C8.56317 15.6504 7.56957 14.8008 6.38157 14.8008C5.19357 14.8008 4.20237 15.6504 3.97677 16.7736H2.63997C2.10957 16.7736 1.67997 16.344 1.67997 15.8136V7.656C1.67997 7.1256 2.10957 6.696 2.63997 6.696H18.9528C19.9848 6.696 20.9064 7.164 21.5256 7.896H18.912H15.024H11.136H7.24797H3.35997C3.09597 7.896 2.87997 8.112 2.87997 8.376V12.2184C2.87997 12.4824 3.09597 12.6984 3.35997 12.6984H7.24797H11.136H15.024H18.912H22.32V14.256H21.1488C20.8848 14.256 20.6688 14.472 20.6688 14.736C20.6688 15 20.8848 15.216 21.1488 15.216H22.32V15.8136C22.32 16.3416 21.8904 16.7736 21.36 16.7736ZM15.504 8.856H18.432V11.7384H15.504V8.856ZM11.616 8.856H14.544V11.7384H11.616V8.856ZM7.72797 8.856H10.656V11.7384H7.72797V8.856ZM3.83997 11.7384V8.856H6.76797V11.7384H3.83997Z" fill="#CA3060"/>
<path d="M15.3192 5.256C15.5832 5.256 15.7992 5.04 15.7992 4.776C15.7992 4.512 15.5832 4.296 15.3192 4.296H6.27358C6.00958 4.296 5.79358 4.512 5.79358 4.776C5.79358 5.04 6.00958 5.256 6.27358 5.256H15.3192Z" fill="#CA3060"/>
</svg>
