<svg width="25" height="24" viewBox="0 0 25 24" fill="none" xmlns="http://www.w3.org/2000/svg">
<path d="M12.5 3.75C12.6989 3.75 12.8897 3.67098 13.0303 3.53033C13.171 3.38968 13.25 3.19891 13.25 3V2.25C13.25 2.05109 13.171 1.86032 13.0303 1.71967C12.8897 1.57902 12.6989 1.5 12.5 1.5C12.3011 1.5 12.1103 1.57902 11.9697 1.71967C11.829 1.86032 11.75 2.05109 11.75 2.25V3C11.75 3.19891 11.829 3.38968 11.9697 3.53033C12.1103 3.67098 12.3011 3.75 12.5 3.75Z" fill="black"/>
<path d="M12.5 20.25C12.3011 20.25 12.1103 20.329 11.9697 20.4697C11.829 20.6103 11.75 20.8011 11.75 21V21.75C11.75 21.9489 11.829 22.1397 11.9697 22.2803C12.1103 22.421 12.3011 22.5 12.5 22.5C12.6989 22.5 12.8897 22.421 13.0303 22.2803C13.171 22.1397 13.25 21.9489 13.25 21.75V21C13.25 20.8011 13.171 20.6103 13.0303 20.4697C12.8897 20.329 12.6989 20.25 12.5 20.25Z" fill="black"/>
<path d="M22.25 11.25H21.5C21.3011 11.25 21.1103 11.329 20.9697 11.4697C20.829 11.6103 20.75 11.8011 20.75 12C20.75 12.1989 20.829 12.3897 20.9697 12.5303C21.1103 12.671 21.3011 12.75 21.5 12.75H22.25C22.4489 12.75 22.6397 12.671 22.7803 12.5303C22.921 12.3897 23 12.1989 23 12C23 11.8011 22.921 11.6103 22.7803 11.4697C22.6397 11.329 22.4489 11.25 22.25 11.25Z" fill="black"/>
<path d="M3.5 11.25H2.75C2.55109 11.25 2.36032 11.329 2.21967 11.4697C2.07902 11.6103 2 11.8011 2 12C2 12.1989 2.07902 12.3897 2.21967 12.5303C2.36032 12.671 2.55109 12.75 2.75 12.75H3.5C3.69891 12.75 3.88968 12.671 4.03033 12.5303C4.17098 12.3897 4.25 12.1989 4.25 12C4.25 11.8011 4.17098 11.6103 4.03033 11.4697C3.88968 11.329 3.69891 11.25 3.5 11.25Z" fill="black"/>
<path d="M18.864 4.57494L18.3338 5.10519C18.2622 5.17438 18.205 5.25713 18.1657 5.34864C18.1264 5.44014 18.1057 5.53855 18.1049 5.63814C18.104 5.73772 18.123 5.83648 18.1607 5.92866C18.1984 6.02083 18.2541 6.10457 18.3245 6.17499C18.3949 6.24541 18.4787 6.3011 18.5708 6.33881C18.663 6.37652 18.7618 6.39549 18.8613 6.39463C18.9609 6.39376 19.0593 6.37307 19.1508 6.33377C19.2424 6.29446 19.3251 6.23732 19.3943 6.16569L19.9253 5.63619C19.995 5.56651 20.0503 5.48378 20.088 5.39274C20.1257 5.30169 20.1451 5.20411 20.1451 5.10557C20.1451 5.00702 20.1257 4.90944 20.088 4.81839C20.0503 4.72735 19.995 4.64462 19.9253 4.57494C19.8556 4.50526 19.7729 4.44998 19.6818 4.41227C19.5908 4.37456 19.4932 4.35515 19.3947 4.35515C19.2961 4.35515 19.1985 4.37456 19.1075 4.41227C19.0165 4.44998 18.9337 4.50526 18.864 4.57494Z" fill="black"/>
<path d="M5.60626 17.8335L5.07526 18.3637C5.00558 18.4334 4.9503 18.5161 4.91259 18.6072C4.87488 18.6982 4.85547 18.7958 4.85547 18.8943C4.85547 18.9929 4.87488 19.0905 4.91259 19.1815C4.9503 19.2725 5.00558 19.3553 5.07526 19.425C5.21599 19.5657 5.40686 19.6447 5.60589 19.6447C5.70443 19.6447 5.80201 19.6253 5.89306 19.5876C5.9841 19.5499 6.06683 19.4946 6.13651 19.425L6.66676 18.8947C6.73644 18.8251 6.79173 18.7424 6.82946 18.6514C6.86719 18.5604 6.88663 18.4629 6.88666 18.3643C6.8867 18.2658 6.86733 18.1683 6.82966 18.0773C6.792 17.9862 6.73677 17.9035 6.66714 17.8338C6.5975 17.7641 6.51483 17.7089 6.42383 17.6711C6.33283 17.6334 6.23529 17.614 6.13678 17.6139C5.93782 17.6139 5.74699 17.6928 5.60626 17.8335Z" fill="black"/>
<path d="M19.394 17.8335C19.2525 17.6969 19.0631 17.6213 18.8664 17.623C18.6698 17.6247 18.4817 17.7036 18.3426 17.8426C18.2036 17.9817 18.1247 18.1698 18.123 18.3665C18.1213 18.5631 18.1969 18.7526 18.3335 18.894L18.8637 19.425C19.0045 19.5657 19.1953 19.6448 19.3944 19.6448C19.5934 19.6448 19.7843 19.5657 19.925 19.425C20.0657 19.2843 20.1448 19.0934 20.1448 18.8944C20.1448 18.6954 20.0657 18.5045 19.925 18.3638L19.394 17.8335Z" fill="black"/>
<path d="M5.60626 6.16644C5.74771 6.30306 5.93716 6.37865 6.13381 6.37695C6.33046 6.37524 6.51857 6.29636 6.65762 6.1573C6.79668 6.01825 6.87556 5.83014 6.87727 5.63349C6.87898 5.43684 6.80338 5.24739 6.66676 5.10594L6.13651 4.57494C5.99578 4.43421 5.80491 4.35515 5.60589 4.35515C5.40686 4.35515 5.21599 4.43421 5.07526 4.57494C4.93453 4.71567 4.85547 4.90654 4.85547 5.10557C4.85547 5.30459 4.93453 5.49546 5.07526 5.63619L5.60626 6.16644Z" fill="black"/>
<path d="M19.025 13.1123C18.9282 13.0168 18.8073 12.9494 18.6752 12.9173C18.5431 12.8851 18.4048 12.8896 18.275 12.93C17.7717 13.0855 17.2477 13.1633 16.721 13.161C15.2937 13.1596 13.9254 12.5921 12.9161 11.5829C11.9068 10.5738 11.3391 9.20549 11.3375 7.77826C11.3356 7.2517 11.414 6.72794 11.57 6.22501C11.6107 6.09508 11.6153 5.95651 11.5832 5.82418C11.5512 5.69184 11.4837 5.57074 11.388 5.47384C11.2923 5.37695 11.1721 5.30792 11.0402 5.27417C10.9083 5.24042 10.7697 5.24321 10.6392 5.28226C9.50072 5.62655 8.47087 6.26004 7.65014 7.12094C6.8294 7.98184 6.24581 9.04076 5.95627 10.1944C5.66674 11.3481 5.68115 12.5571 5.9981 13.7035C6.31505 14.8499 6.92373 15.8947 7.76475 16.7357C8.60577 17.5768 9.65042 18.1856 10.7968 18.5027C11.9432 18.8197 13.1522 18.8342 14.3059 18.5448C15.4596 18.2554 16.5186 17.6719 17.3795 16.8512C18.2405 16.0305 18.8741 15.0007 19.2185 13.8623C19.2575 13.7315 19.2601 13.5925 19.226 13.4603C19.1919 13.3282 19.1224 13.2078 19.025 13.1123ZM12.6327 17.25C11.4565 17.2499 10.3126 16.8643 9.37621 16.1524C8.43981 15.4405 7.76242 14.4415 7.44769 13.3081C7.13295 12.1747 7.19819 10.9694 7.63344 9.87658C8.06868 8.78378 8.84996 7.86367 9.85774 7.25701C9.84524 7.42951 9.83898 7.60451 9.83898 7.78201C9.84117 9.60689 10.5671 11.3564 11.8576 12.6467C13.148 13.937 14.8976 14.6628 16.7225 14.6648C16.8972 14.6648 17.072 14.658 17.2475 14.6453C16.7656 15.4382 16.0883 16.0941 15.2802 16.5502C14.4722 17.0063 13.5606 17.2473 12.6327 17.25Z" fill="black"/>
</svg>
