<svg width="17" height="16" viewBox="0 0 17 16" fill="none" xmlns="http://www.w3.org/2000/svg">
<path d="M14.6274 6.08451V2.66325C14.6274 0.696543 13.2548 0 11.9641 0H4.30218C3.01152 0 1.63892 0.696543 1.63892 2.66325V6.08451C0.696543 6.33035 0 7.17029 0 8.19462V13.685C0 15.3035 1.08579 15.9385 2.15109 16C1.74136 16 2.30474 16 2.15109 16C2.56082 16 2.5096 16 2.8886 16H4.38412H11.9027C12.2663 16 11.8566 16 12.2663 16H11.9027C12.3124 16 11.8665 16 12.2663 16H14.1357C15.7132 15.9181 16.2868 14.7708 16.2868 13.685V8.17414C16.2458 7.17029 15.5493 6.30986 14.6274 6.08451ZM2.37644 2.66325C2.37644 0.983355 3.58515 0.717029 4.30218 0.717029H11.9641C12.6812 0.717029 13.8899 0.962868 13.8899 2.64277V6.00256C12.7836 6.10499 11.9027 7.02689 11.9027 8.17414V8.6863H4.36364V8.17414C4.36364 7.02689 3.48271 6.10499 2.37644 6.00256V2.66325ZM11.8822 9.42382V11.9641H4.36364V9.42382H11.8822ZM12.4968 16H12.6197H13.3777H12.4968ZM15.5493 13.685H15.5288C15.5288 14.402 15.2625 15.283 13.9309 15.283H13.3777H12.6197H3.64661H2.8886H2.33547C1.61844 15.283 0.737516 15.0166 0.737516 13.685V8.17414C0.737516 7.37516 1.39309 6.71959 2.19206 6.71959C2.99104 6.71959 3.64661 7.37516 3.64661 8.17414V12.3329C3.64661 12.5378 3.8105 12.7017 4.01537 12.7017H12.2714C12.4763 12.7017 12.6402 12.5378 12.6402 12.3329V8.17414C12.6402 7.37516 13.2958 6.71959 14.0948 6.71959C14.8937 6.71959 15.5493 7.37516 15.5493 8.17414V13.685Z" fill="#CA3060"/>
</svg>
