<svg width="58" height="24" viewBox="0 0 58 24" fill="none" xmlns="http://www.w3.org/2000/svg">
<path d="M2.34311 1H55.3992C56.1411 1 56.7424 1.60137 56.7424 2.34319V21.8195C56.7424 22.5613 56.1411 23.1627 55.3992 23.1627H2.34311C1.60128 23.1627 0.999916 22.5613 0.999916 21.8195V2.34319C0.999916 1.60137 1.60128 1 2.34311 1Z" fill="white" fill-opacity="0.24" stroke="#FF4081" stroke-width="0.961078"/>
<path d="M8.47299 6.13965H7.08219C6.34213 6.13965 5.74219 6.73959 5.74219 7.47965V16.2996C5.74219 17.0397 6.34213 17.6396 7.08219 17.6396H8.47298C9.21305 17.6396 9.81298 17.0397 9.81298 16.2996V7.47965C9.81298 6.73959 9.21305 6.13965 8.47299 6.13965Z" fill="white" stroke="#FF4081"/>
</svg>
