<svg width="12" height="18" viewBox="0 0 12 18" fill="none" xmlns="http://www.w3.org/2000/svg">
<path fill-rule="evenodd" clip-rule="evenodd" d="M2.12797 12.7557C2.3313 13.839 3.27797 14.6248 4.38047 14.6248H10.498C11.303 14.6248 11.9563 13.9715 11.9563 13.1665C11.9563 12.689 11.9563 12.0723 11.9563 11.4998C11.9563 10.8923 11.7146 10.309 11.2846 9.879C10.8546 9.44984 10.2721 9.20817 9.66463 9.20817H6.19297C6.09213 9.20817 6.0063 9.1365 5.98797 9.03734L4.69463 1.92317C4.4963 0.83317 3.54713 0.0415039 2.43963 0.0415039C2.12547 0.0415039 1.79713 0.0415039 1.5013 0.0415039C1.06797 0.0415039 0.6563 0.234837 0.379633 0.568171C0.102133 0.902337 -0.0120338 1.34234 0.0679662 1.769L2.12797 12.7557ZM3.35713 12.5248L1.29713 1.53817C1.28547 1.47734 1.30213 1.41484 1.3413 1.3665C1.3813 1.319 1.43963 1.2915 1.5013 1.2915H2.43963C2.94297 1.2915 3.37463 1.6515 3.46463 2.1465C3.8263 4.13734 4.48463 7.7565 4.75797 9.26067C4.88463 9.954 5.48797 10.4582 6.19297 10.4582H9.66463C9.94047 10.4582 10.2055 10.5682 10.4005 10.7632C10.5963 10.959 10.7063 11.2232 10.7063 11.4998V13.1665C10.7063 13.2815 10.613 13.3748 10.498 13.3748H4.38047C3.87963 13.3748 3.44963 13.0182 3.35713 12.5248Z" fill="#777777"/>
<path fill-rule="evenodd" clip-rule="evenodd" d="M5.38528 13.6691C5.38528 13.6691 4.68611 14.7858 4.09861 15.7266C3.81778 16.1766 3.80278 16.7433 4.05944 17.2066C4.31694 17.6708 4.80528 17.9583 5.33528 17.9583H10.9153C11.2594 17.9583 11.5403 17.6783 11.5403 17.3333C11.5403 16.9883 11.2594 16.7083 10.9153 16.7083H5.33528C5.25944 16.7083 5.18944 16.6674 5.15278 16.6008C5.11611 16.5349 5.11861 16.4541 5.15861 16.3891L6.44528 14.3308C6.62778 14.0383 6.53861 13.6524 6.24611 13.4699C5.95361 13.2874 5.56778 13.3758 5.38528 13.6691Z" fill="#777777"/>
<path fill-rule="evenodd" clip-rule="evenodd" d="M5.08203 7.125H10.082C10.4262 7.125 10.707 6.845 10.707 6.5C10.707 6.155 10.4262 5.875 10.082 5.875H5.08203C4.73703 5.875 4.45703 6.155 4.45703 6.5C4.45703 6.845 4.73703 7.125 5.08203 7.125Z" fill="#777777"/>
</svg>
