<svg width="18" height="16" viewBox="0 0 18 16" fill="none" xmlns="http://www.w3.org/2000/svg">
<path d="M3.85669 0.5H13.8567C14.409 0.5 14.8567 0.947715 14.8567 1.5V6C15.9613 6 16.8567 6.89543 16.8567 8V14C16.8567 15.1046 15.9613 16 14.8567 16H3.85669C2.19984 16 0.856689 14.6569 0.856689 13V8.5C0.856689 7.11929 1.97598 6 3.35669 6H2.85669V1.5C2.85669 0.947715 3.3044 0.5 3.85669 0.5Z" fill="#A5D6A7"/>
<path d="M15.4841 6.08451V2.66325C15.4841 0.696543 14.1115 0 12.8208 0H5.15887C3.86821 0 2.49561 0.696543 2.49561 2.66325V6.08451C1.55323 6.33035 0.856689 7.17029 0.856689 8.19462V13.685C0.856689 15.3035 1.94248 15.9385 3.00778 16C2.59805 16 3.16143 16 3.00778 16C3.41751 16 3.36629 16 3.74529 16H5.24081H12.7594C13.123 16 12.7133 16 13.123 16H12.7594C13.1691 16 12.7232 16 13.123 16H14.9924C16.5699 15.9181 17.1435 14.7708 17.1435 13.685V8.17414C17.1025 7.17029 16.406 6.30986 15.4841 6.08451ZM3.23313 2.66325C3.23313 0.983355 4.44184 0.717029 5.15887 0.717029H12.8208C13.5379 0.717029 14.7466 0.962868 14.7466 2.64277V6.00256C13.6403 6.10499 12.7594 7.02689 12.7594 8.17414V8.6863H5.22033V8.17414C5.22033 7.02689 4.3394 6.10499 3.23313 6.00256V2.66325ZM12.7389 9.42382V11.9641H5.22033V9.42382H12.7389ZM13.3535 16H13.4764H14.2344H13.3535ZM16.406 13.685C16.406 14.4021 16.1192 15.283 14.7875 15.283H14.2344H13.4764H4.5033H3.74529H3.19216C2.47513 15.283 1.59421 15.0166 1.59421 13.685V8.17414C1.59421 7.37516 2.24978 6.71959 3.04875 6.71959C3.84773 6.71959 4.5033 7.37516 4.5033 8.17414V12.3329C4.5033 12.5378 4.66719 12.7017 4.87205 12.7017H13.1281C13.333 12.7017 13.4969 12.5378 13.4969 12.3329V8.17414C13.4969 7.37516 14.1525 6.71959 14.9514 6.71959C15.7504 6.71959 16.406 7.37516 16.406 8.17414V13.685Z" fill="#4CAF50"/>
</svg>
