<svg width="58" height="24" viewBox="0 0 58 24" fill="none" xmlns="http://www.w3.org/2000/svg">
<path d="M2.60068 1H55.6568C56.3986 1 57 1.60137 57 2.34319V21.8195C57 22.5613 56.3986 23.1627 55.6568 23.1627H2.60068C1.85885 23.1627 1.25748 22.5613 1.25748 21.8195V2.34319C1.25748 1.60137 1.85885 1 2.60068 1Z" fill="#4CAF50" fill-opacity="0.5" stroke="#4CAF50" stroke-width="0.961078"/>
<path d="M8.73055 6.13965H7.33976C6.59969 6.13965 5.99976 6.73959 5.99976 7.47965V16.2996C5.99976 17.0397 6.59969 17.6396 7.33976 17.6396H8.73055C9.47061 17.6396 10.0706 17.0397 10.0706 16.2996V7.47965C10.0706 6.73959 9.47062 6.13965 8.73055 6.13965Z" fill="white" stroke="#4CAF50"/>
</svg>
