<svg width="24" height="58" viewBox="0 0 24 58" fill="none" xmlns="http://www.w3.org/2000/svg">
<g clip-path="url(#clip0_1_14)">
<path d="M1 2.60068L1 55.6568C1 56.3986 1.60137 57 2.34319 57H21.8195C22.5613 57 23.1627 56.3986 23.1627 55.6568L23.1627 2.60068C23.1627 1.85885 22.5613 1.25748 21.8195 1.25748L2.34319 1.25748C1.60137 1.25748 1 1.85885 1 2.60068Z" fill="#4CAF50" fill-opacity="0.5" stroke="#4CAF50" stroke-width="0.961078"/>
<path d="M6.13965 8.73055V7.33976C6.13965 6.59969 6.73959 5.99976 7.47965 5.99976L16.2996 5.99976C17.0397 5.99976 17.6396 6.59969 17.6396 7.33976V8.73055C17.6396 9.47061 17.0397 10.0706 16.2996 10.0706H7.47965C6.73959 10.0706 6.13965 9.47062 6.13965 8.73055Z" fill="white" stroke="#4CAF50"/>
</g>
<defs>
<clipPath id="clip0_1_14">
<rect width="58" height="24" fill="white" transform="matrix(0 1 1 0 0 0)"/>
</clipPath>
</defs>
</svg>
