<svg width="26" height="25" viewBox="0 0 26 25" fill="none" xmlns="http://www.w3.org/2000/svg">
<g clip-path="url(#clip0_2_17)">
<mask id="mask0_2_17" style="mask-type:luminance" maskUnits="userSpaceOnUse" x="1" y="0" width="25" height="25">
<path d="M1.35831 0.5L25.3583 0.5V24.5H1.35831V0.5Z" fill="white"/>
</mask>
<g mask="url(#mask0_2_17)">
<path d="M13.3584 0.5C19.9858 0.5 25.3583 5.87253 25.3583 12.4999C25.3583 19.1273 19.9858 24.5001 13.3584 24.5001C6.731 24.5001 1.35825 19.1273 1.35825 12.4999C1.36572 5.87561 6.73385 0.507471 13.3584 0.5ZM13.3584 2.90007C9.40463 2.88667 5.85209 5.31289 4.42563 9.00012C7.23263 7.73669 10.2802 7.09707 13.3584 7.12498C16.4363 7.09707 19.4839 7.73669 22.2909 9.00012C20.8645 5.31289 17.3119 2.88667 13.3584 2.90007ZM15.3346 21.8943C19.5123 21.0022 22.6023 17.4636 22.9231 13.2037C19.3396 13.2037 15.3346 17.9751 15.3346 21.8943ZM13.3584 14.2999C14.3524 14.2999 15.1584 13.4942 15.1584 12.4999C15.1584 11.5059 14.3524 10.6999 13.3584 10.6999C12.3641 10.6999 11.5584 11.5059 11.5584 12.4999C11.5584 13.4942 12.3641 14.2999 13.3584 14.2999ZM11.3819 21.8943C11.3819 17.9751 7.37699 13.2037 3.79325 13.2037C4.11427 17.4636 7.20429 21.0022 11.3819 21.8943Z" fill="#777777"/>
</g>
</g>
<defs>
<clipPath id="clip0_2_17">
<rect width="24" height="25" fill="white" transform="matrix(0 -1 1 0 0.5 24.5)"/>
</clipPath>
</defs>
</svg>
