<svg width="24" height="25" viewBox="0 0 24 25" fill="none" xmlns="http://www.w3.org/2000/svg">
<g clip-path="url(#clip0_126_2241)">
<path d="M0 12.8584C0 19.4858 5.37253 24.8583 11.9999 24.8583C18.6273 24.8583 24.0001 19.4858 24.0001 12.8584C24.0001 6.23099 18.6273 0.858232 11.9999 0.858232C5.37561 0.865704 0.00747067 6.23384 0 12.8584ZM2.40007 12.8584C2.38667 8.90462 4.81289 5.35208 8.50012 3.92562C7.23669 6.73262 6.59707 9.78023 6.62498 12.8584C6.59707 15.9363 7.23669 18.9839 8.50012 21.7909C4.81289 20.3645 2.38667 16.8119 2.40007 12.8584ZM21.3943 14.8346C20.5022 19.0123 16.9636 22.1023 12.7037 22.4231C12.7037 18.8396 17.4751 14.8346 21.3943 14.8346ZM13.7999 12.8584C13.7999 13.8524 12.9942 14.6584 11.9999 14.6584C11.0059 14.6584 10.1999 13.8524 10.1999 12.8584C10.1999 11.8641 11.0059 11.0584 11.9999 11.0584C12.9942 11.0584 13.7999 11.8641 13.7999 12.8584ZM21.3943 10.8819C17.4751 10.8819 12.7037 6.87698 12.7037 3.29324C16.9636 3.61426 20.5022 6.70428 21.3943 10.8819Z" fill="#777777"/>
</g>
<defs>
<clipPath id="clip0_126_2241">
<rect width="24" height="24" fill="white" transform="matrix(0 -1 1 0 0 24.8583)"/>
</clipPath>
</defs>
</svg>
