<svg width="25" height="24" viewBox="0 0 25 24" fill="none" xmlns="http://www.w3.org/2000/svg">
<g clip-path="url(#clip0_1_5264)">
<path d="M16.754 7.74602C15.6746 6.66666 14.1508 5.96825 12.5 5.96825C10.8492 5.96825 9.3254 6.63491 8.24604 7.74602C7.16667 8.82539 6.46826 10.3492 6.46826 12C6.46826 13.6508 7.16667 15.1746 8.24604 16.254C9.3254 17.3333 10.8492 18.0317 12.5 18.0317C14.1508 18.0317 15.6746 17.3651 16.754 16.254C17.8333 15.1746 18.5318 13.6508 18.5318 12C18.5318 10.3492 17.8651 8.82539 16.754 7.74602ZM15.6111 15.1111C14.8175 15.9048 13.7064 16.3809 12.5 16.3809C11.2937 16.3809 10.1825 15.9048 9.3889 15.1111C8.59525 14.3175 8.11906 13.2063 8.11906 12C8.11906 10.7936 8.59525 9.68253 9.3889 8.88888C10.1825 8.09523 11.2937 7.61904 12.5 7.61904C13.7064 7.61904 14.8175 8.09523 15.6111 8.88888C16.4048 9.68253 16.881 10.7936 16.881 12C16.881 13.2063 16.4048 14.3175 15.6111 15.1111Z" fill="black"/>
<path d="M23.6748 11.1745H21.2303C20.7859 11.1745 20.4049 11.5554 20.4049 11.9999C20.4049 12.4443 20.7859 12.8253 21.2303 12.8253H23.6748C24.1192 12.8253 24.5002 12.4443 24.5002 11.9999C24.5002 11.5554 24.1192 11.1745 23.6748 11.1745Z" fill="black"/>
<path d="M12.5 19.9048C12.0555 19.9048 11.6746 20.2857 11.6746 20.7302V23.1746C11.6746 23.619 12.0555 24 12.5 24C12.9444 24 13.3254 23.619 13.3254 23.1746V20.7302C13.3254 20.2857 12.9444 19.9048 12.5 19.9048Z" fill="black"/>
<path d="M20.976 19.3334L19.2299 17.5874C18.9442 17.2699 18.4045 17.2699 18.0871 17.5874C17.7696 17.9048 17.7696 18.4128 18.0871 18.7302L19.8331 20.4763C20.1506 20.7937 20.6585 20.7937 20.976 20.4763C21.2934 20.1588 21.2934 19.6509 20.976 19.3334Z" fill="black"/>
<path d="M12.5 0C12.0555 0 11.6746 0.380952 11.6746 0.825397V3.26984C11.6746 3.71429 12.0555 4.09524 12.5 4.09524C12.9444 4.09524 13.3254 3.71429 13.3254 3.26984V0.825397C13.3254 0.380952 12.9444 0 12.5 0Z" fill="black"/>
<path d="M21.0079 3.52382C20.6905 3.20636 20.1825 3.20636 19.8651 3.52382L18.119 5.26985C17.8016 5.58731 17.8016 6.09524 18.119 6.41271C18.4048 6.73017 18.9444 6.73017 19.2619 6.41271L21.0079 4.66667C21.3254 4.34921 21.3254 3.84128 21.0079 3.52382Z" fill="black"/>
<path d="M3.76984 11.1746H1.3254C0.880952 11.1746 0.5 11.5556 0.5 12C0.5 12.4444 0.849206 12.8254 1.3254 12.8254H3.76984C4.21429 12.8254 4.59524 12.4444 4.59524 12C4.59524 11.5556 4.21429 11.1746 3.76984 11.1746Z" fill="black"/>
<path d="M6.88095 17.5873C6.59524 17.2698 6.05555 17.2698 5.73809 17.5873L3.99206 19.3333C3.6746 19.6508 3.6746 20.1587 3.99206 20.4762C4.30952 20.7937 4.81746 20.7937 5.13492 20.4762L6.88095 18.7302C7.19841 18.4127 7.19841 17.9048 6.88095 17.5873Z" fill="black"/>
<path d="M6.88095 5.26985L5.13492 3.52382C4.81746 3.20636 4.30952 3.20636 3.99206 3.52382C3.6746 3.84128 3.6746 4.34921 3.99206 4.66667L5.73809 6.41271C6.05555 6.73017 6.56349 6.73017 6.88095 6.41271C7.19841 6.09524 7.19841 5.58731 6.88095 5.26985Z" fill="black"/>
</g>
<defs>
<clipPath id="clip0_1_5264">
<rect width="24" height="24" fill="white" transform="translate(0.5)"/>
</clipPath>
</defs>
</svg>
