<svg width="24" height="24" viewBox="0 0 24 24" fill="none" xmlns="http://www.w3.org/2000/svg">
<path d="M22.3925 11.6483C22.1983 11.312 21.7683 11.1967 21.432 11.3909L19.4754 12.5206C19.1391 12.7148 19.0239 13.1448 19.218 13.4811C19.3482 13.7067 19.5846 13.8328 19.8276 13.8328C19.9468 13.8328 20.0678 13.8024 20.1785 13.7385L22.1351 12.6087C22.4714 12.4145 22.5866 11.9845 22.3925 11.6483Z" fill="black"/>
<path d="M18.0001 7.25617C17.6638 7.06187 17.2338 7.17723 17.0397 7.51351L15.91 9.47021C15.7159 9.80654 15.8311 10.2366 16.1674 10.4307C16.2781 10.4946 16.399 10.525 16.5183 10.525C16.7613 10.525 16.9977 10.3989 17.1279 10.1733L18.2575 8.21664C18.4517 7.88031 18.3365 7.45028 18.0001 7.25617Z" fill="black"/>
<path d="M12 5.64848C11.6116 5.64848 11.2968 5.9633 11.2968 6.35161V8.61098C11.2968 8.9993 11.6116 9.31411 12 9.31411C12.3883 9.31411 12.7031 8.9993 12.7031 8.61098V6.35161C12.7031 5.9633 12.3883 5.64848 12 5.64848Z" fill="black"/>
<path d="M8.09012 9.47021L6.96043 7.51355C6.76627 7.17722 6.33624 7.06191 5.99996 7.25621C5.66368 7.45036 5.54846 7.8804 5.74262 8.21668L6.8723 10.1733C7.00252 10.3989 7.23887 10.525 7.48187 10.525C7.60112 10.525 7.72205 10.4947 7.83277 10.4307C8.16905 10.2365 8.28427 9.80654 8.09012 9.47021Z" fill="black"/>
<path d="M4.52514 12.521L2.56849 11.3912C2.23211 11.197 1.80213 11.3123 1.60802 11.6486C1.41382 11.9849 1.52903 12.4149 1.86536 12.6091L3.82202 13.7388C3.93274 13.8027 4.05363 13.8331 4.17293 13.8331C4.41593 13.8331 4.65227 13.7071 4.78249 13.4814C4.97664 13.1452 4.86143 12.7151 4.52514 12.521Z" fill="black"/>
<path d="M23.2969 16.9453H17.1743C16.8299 14.3973 14.6409 12.4266 12 12.4266C9.35906 12.4266 7.17009 14.3973 6.82561 16.9453H0.703125C0.314812 16.9453 0 17.2601 0 17.6484C0 18.0367 0.314812 18.3515 0.703125 18.3515H23.2969C23.6852 18.3515 24 18.0367 24 17.6484C24 17.2601 23.6852 16.9453 23.2969 16.9453ZM8.25037 16.9453C8.58145 15.1762 10.1363 13.8328 12 13.8328C13.8637 13.8328 15.4185 15.1762 15.7496 16.9453H8.25037Z" fill="black"/>
</svg>
