<svg width="48" height="48" viewBox="0 0 48 48" fill="none" xmlns="http://www.w3.org/2000/svg">
<circle cx="24" cy="24" r="23" fill="white" stroke="#CA3060" stroke-width="2"/>
<path fill-rule="evenodd" clip-rule="evenodd" d="M28.125 15V30C28.125 30.621 28.629 31.125 29.25 31.125C29.871 31.125 30.375 30.621 30.375 30V15C30.375 14.379 29.871 13.875 29.25 13.875C28.629 13.875 28.125 14.379 28.125 15Z" fill="#CA3060"/>
<path fill-rule="evenodd" clip-rule="evenodd" d="M19.875 33V18C19.875 17.379 19.371 16.875 18.75 16.875C18.129 16.875 17.625 17.379 17.625 18V33C17.625 33.621 18.129 34.125 18.75 34.125C19.371 34.125 19.875 33.621 19.875 33Z" fill="#CA3060"/>
<path fill-rule="evenodd" clip-rule="evenodd" d="M26.295 19.545L29.25 16.5915L32.205 19.545C32.643 19.9845 33.357 19.9845 33.795 19.545C34.2345 19.107 34.2345 18.393 33.795 17.955L30.045 14.205C29.6055 13.7655 28.8945 13.7655 28.455 14.205L24.705 17.955C24.2655 18.393 24.2655 19.107 24.705 19.545C25.143 19.9845 25.857 19.9845 26.295 19.545Z" fill="#CA3060"/>
<path fill-rule="evenodd" clip-rule="evenodd" d="M21.705 28.455L18.75 31.4085L15.795 28.455C15.357 28.0155 14.643 28.0155 14.205 28.455C13.7655 28.893 13.7655 29.607 14.205 30.045L17.955 33.795C18.3945 34.2345 19.1055 34.2345 19.545 33.795L23.295 30.045C23.7345 29.607 23.7345 28.893 23.295 28.455C22.857 28.0155 22.143 28.0155 21.705 28.455Z" fill="#CA3060"/>
</svg>
