<svg width="41" height="40" viewBox="0 0 41 40" fill="none" xmlns="http://www.w3.org/2000/svg">
<circle cx="20.25" cy="20" r="19" transform="rotate(-90 20.25 20)" stroke="#CA3060" stroke-width="2"/>
<path fill-rule="evenodd" clip-rule="evenodd" d="M12.75 16.5625H25.25C25.7675 16.5625 26.1875 16.1425 26.1875 15.625C26.1875 15.1075 25.7675 14.6875 25.25 14.6875H12.75C12.2325 14.6875 11.8125 15.1075 11.8125 15.625C11.8125 16.1425 12.2325 16.5625 12.75 16.5625Z" fill="#CA3060"/>
<path fill-rule="evenodd" clip-rule="evenodd" d="M27.75 23.4375H15.25C14.7325 23.4375 14.3125 23.8575 14.3125 24.375C14.3125 24.8925 14.7325 25.3125 15.25 25.3125H27.75C28.2675 25.3125 28.6875 24.8925 28.6875 24.375C28.6875 23.8575 28.2675 23.4375 27.75 23.4375Z" fill="#CA3060"/>
<path fill-rule="evenodd" clip-rule="evenodd" d="M16.5372 18.0874L14.0759 15.6249L16.5372 13.1624C16.9034 12.7974 16.9034 12.2024 16.5372 11.8374C16.1722 11.4712 15.5772 11.4712 15.2122 11.8374L12.0872 14.9624C11.7209 15.3287 11.7209 15.9212 12.0872 16.2874L15.2122 19.4124C15.5772 19.7787 16.1722 19.7787 16.5372 19.4124C16.9034 19.0474 16.9034 18.4524 16.5372 18.0874Z" fill="#CA3060"/>
<path fill-rule="evenodd" clip-rule="evenodd" d="M23.9622 21.9124L26.4234 24.3749L23.9622 26.8374C23.5959 27.2024 23.5959 27.7974 23.9622 28.1624C24.3272 28.5287 24.9222 28.5287 25.2872 28.1624L28.4122 25.0374C28.7784 24.6712 28.7784 24.0787 28.4122 23.7124L25.2872 20.5874C24.9222 20.2212 24.3272 20.2212 23.9622 20.5874C23.5959 20.9524 23.5959 21.5474 23.9622 21.9124Z" fill="#CA3060"/>
</svg>
