<svg width="22" height="21" viewBox="0 0 22 21" fill="none" xmlns="http://www.w3.org/2000/svg">
<path d="M21.1279 4.31456C21.0063 4.14022 20.8105 4.03245 20.5979 4.02337L7.41598 3.45517C7.03777 3.43862 6.72171 3.73062 6.70555 4.10707C6.68947 4.48338 6.98099 4.80134 7.3574 4.81751L19.6469 5.34728L17.2305 12.8865H6.47737L4.53466 2.3086C4.49196 2.07676 4.33279 1.88335 4.11327 1.79723L0.93144 0.547218C0.580762 0.409924 0.185049 0.582172 0.0473265 0.932422C-0.0901579 1.28286 0.0820424 1.67881 0.43253 1.81654L3.26168 2.92797L5.23868 13.6916C5.29827 14.0151 5.58028 14.2501 5.90941 14.2501H6.23736L5.48849 16.3302C5.42581 16.5045 5.45164 16.698 5.5583 16.8494C5.66483 17.0008 5.83808 17.0909 6.02302 17.0909H6.54828C6.2228 17.4531 6.02302 17.93 6.02302 18.4545C6.02302 19.5825 6.9408 20.5 8.0685 20.5C9.19619 20.5 10.114 19.5825 10.114 18.4545C10.114 17.9301 9.9142 17.4531 9.58877 17.0909H14.0484C13.7228 17.4531 13.5231 17.93 13.5231 18.4545C13.5231 19.5825 14.4406 20.5 15.5686 20.5C16.6965 20.5 17.614 19.5825 17.614 18.4545C17.614 17.9301 17.4143 17.4531 17.0889 17.0909H17.7277C18.0416 17.0909 18.2959 16.8365 18.2959 16.5227C18.2959 16.2088 18.0415 15.9545 17.7277 15.9545H6.83147L7.44504 14.25H17.7276C18.0242 14.25 18.2865 14.0584 18.3768 13.7763L21.2178 4.91248C21.283 4.71018 21.2495 4.48899 21.1279 4.31456ZM8.06855 19.3638C7.56716 19.3638 7.15942 18.9561 7.15942 18.4548C7.15942 17.9534 7.56716 17.5456 8.06855 17.5456C8.56993 17.5456 8.97763 17.9534 8.97763 18.4548C8.97763 18.9561 8.56993 19.3638 8.06855 19.3638ZM15.5686 19.3638C15.0672 19.3638 14.6595 18.9561 14.6595 18.4548C14.6595 17.9534 15.0672 17.5456 15.5686 17.5456C16.0699 17.5456 16.4776 17.9534 16.4776 18.4548C16.4776 18.9561 16.0699 19.3638 15.5686 19.3638Z" fill="#CA3060"/>
</svg>
