<svg width="96" height="95" viewBox="0 0 96 95" fill="none" xmlns="http://www.w3.org/2000/svg">
<path d="M48.0719 0.455078C22.0319 0.455078 0.921875 21.5651 0.921875 47.6051C0.921875 73.6451 22.0319 94.7551 48.0719 94.7551C74.1119 94.7551 95.2219 73.6451 95.2219 47.6051C95.1919 21.5751 74.0969 0.480078 48.0719 0.455078ZM48.0719 86.1801C26.7669 86.1801 9.49688 68.9101 9.49688 47.6051C9.49688 26.3001 26.7669 9.03008 48.0719 9.03008C69.3769 9.03008 86.6469 26.2951 86.6469 47.6001C86.6219 68.8951 69.3669 86.1551 48.0719 86.1801Z" fill="#28A745"/>
<path d="M65.7504 30.9302L41.5055 55.1752L30.3905 44.0652C28.7155 42.3902 26.0005 42.3902 24.3305 44.0652C22.6555 45.7402 22.6555 48.4552 24.3305 50.1252L38.4755 64.2702C39.2805 65.0752 40.3705 65.5252 41.5055 65.5252C42.6405 65.5252 43.7305 65.0752 44.5355 64.2702L71.8154 36.9902C73.4904 35.3152 73.4904 32.6002 71.8154 30.9302C70.1354 29.2602 67.4204 29.2602 65.7504 30.9302Z" fill="#28A745"/>
</svg>
