<svg width="16" height="15" viewBox="0 0 16 15" fill="none" xmlns="http://www.w3.org/2000/svg">
<g clip-path="url(#clip0_362_19037)">
<path d="M1.91921 12H2.0003L5.91244 11.1486C5.98864 11.1359 6.05926 11.1006 6.11513 11.0473L12.7434 4.41895C13.2276 3.9358 13.4978 3.27863 13.4934 2.59466C13.4943 1.90537 13.2251 1.24319 12.7434 0.750069C12.2603 0.265866 11.6031 -0.00428643 10.9191 9.77728e-05C10.2308 -0.00599356 9.5705 0.272772 9.09484 0.77036L2.48675 7.39866C2.42847 7.44557 2.38599 7.50923 2.36512 7.58109L1.5138 11.4932C1.49056 11.6337 1.53573 11.7768 1.63544 11.8784C1.71028 11.9547 1.81228 11.9985 1.91921 12ZM10.9191 0.810904C11.8931 0.810827 12.6827 1.60033 12.6827 2.57429C12.6827 2.58108 12.6827 2.58787 12.6826 2.59466C12.6893 3.05864 12.5062 3.50525 12.1759 3.83112L9.68267 1.31761C10.0111 0.9912 10.456 0.808848 10.9191 0.810904ZM9.11509 1.90548L11.6083 4.3987L5.83132 10.1554L3.3381 7.68243L9.11509 1.90548ZM3.01379 8.49328L5.02051 10.5L2.4462 11.0676L3.01379 8.49328Z" fill="#393186"/>
<path d="M14.7906 14.189H1.2096C0.985698 14.189 0.804199 14.3705 0.804199 14.5944C0.804199 14.8183 0.985698 14.9998 1.2096 14.9998H14.7906C15.0145 14.9998 15.196 14.8183 15.196 14.5944C15.196 14.3705 15.0145 14.189 14.7906 14.189Z" fill="#393186"/>
</g>
<defs>
<clipPath id="clip0_362_19037">
<rect width="15" height="15" fill="white" transform="translate(0.5)"/>
</clipPath>
</defs>
</svg>
