<svg width="22" height="26" viewBox="0 0 22 26" fill="none" xmlns="http://www.w3.org/2000/svg">
<path d="M14.6175 1H5.84745C5.23613 1 4.64986 1.24284 4.21759 1.67511C3.78532 2.10738 3.54248 2.69365 3.54248 3.30497V22.695C3.54248 23.3063 3.78532 23.8926 4.21759 24.3249C4.64986 24.7572 5.23613 25 5.84745 25H19.695C20.3064 25 20.8926 24.7572 21.3249 24.3249C21.7572 23.8926 22 23.3063 22 22.695V8.38578L14.6175 1ZM15.0785 7.96628V1.5038L21.541 7.96628H15.0785Z" stroke="#013443" stroke-width="2"/>
<path d="M11.0728 11.5029H14.469V16.0312H16.7325L12.7706 20.5595L8.80933 16.0312H11.0728V11.5029Z" fill="#013443"/>
<path d="M10.3912 4.79492H0.543701V11.3595H10.3912V4.79492Z" fill="#ca3060"/>
<path d="M3.28971 6.97985V10.6162H2.52089V6.97985H3.28971ZM6.9638 6.97985V10.6162H6.29974L4.71771 8.3275H4.69107V10.6162H3.92225V6.97985H4.59697L6.16657 9.26678H6.19853V6.97985H6.9638ZM3.17785 12.9798L4.05675 15.7426H4.09049L4.97117 12.9798H5.82344L4.56989 16.6162H3.57912L2.3238 12.9798H3.17785Z" fill="white"/>
</svg>
