<svg width="1825" height="1118" viewBox="0 0 1825 1118" fill="none" xmlns="http://www.w3.org/2000/svg">
<path d="M1318.99 55C1325.69 48.3 1334.99 44.2 1345.19 44.2H1381.99C1387.49 18.9 1409.99 0 1436.89 0C1463.79 0 1486.29 18.9 1491.69 44.2H1501.59C1511.89 44.2 1521.09 48.3 1527.79 55C1534.49 61.7 1538.69 71 1538.69 81.2C1538.69 92.5 1533.59 102.7 1525.59 109.5C1519.19 115 1510.79 118.3 1501.59 118.3H1345.19C1334.99 118.3 1325.69 114.1 1318.99 107.4C1312.29 100.7 1308.09 91.5 1308.09 81.2C1308.09 71 1312.29 61.7 1318.99 55Z" fill="#E9F3FC"/>
<path d="M868.492 110.8C862.192 104.5 853.492 100.6 843.892 100.6H809.292C804.092 76.8996 782.992 59.0996 757.792 59.0996C732.492 59.0996 711.392 76.8996 706.192 100.6H696.892C687.292 100.6 678.592 104.5 672.292 110.8C665.992 117.1 662.092 125.8 662.092 135.4C662.092 146.1 666.892 155.6 674.392 162C680.492 167.1 688.292 170.3 696.892 170.3H843.892C853.492 170.3 862.192 166.4 868.492 160.1C874.792 153.8 878.692 145.1 878.692 135.4C878.692 125.8 874.792 117.1 868.492 110.8Z" fill="#E9F3FC"/>
<path d="M1824.89 582.599V779.799C1645.69 748.699 1404.79 720.399 1122.99 720.399C500.991 720.399 13.191 858.599 13.191 858.599C-23.009 781.199 17.091 558.299 111.491 506.099C205.891 453.999 287.891 558.299 362.491 521.099C436.991 483.799 367.291 154.299 481.691 133.099C596.191 111.899 668.291 323.899 808.191 323.899C948.091 323.899 926.891 111.899 1090.49 103.399C1254.09 94.8993 1249.79 320.499 1348.19 320.499C1446.59 320.499 1406.69 229.999 1560.89 227.399C1715.19 224.699 1757.79 546.499 1823.79 582.099C1824.12 582.299 1824.49 582.466 1824.89 582.599Z" fill="url(#paint0_linear_204_23487)"/>
<path d="M403.791 878.8C385.891 878.3 366.391 872 366.791 843.2C367.291 814.4 388.191 809.9 390.291 788.4C392.391 766.8 392.491 746.8 403.791 746.6C415.091 746.3 407.891 755.6 413.191 765.5C418.391 775.5 428.591 788.3 426.591 807C424.591 825.7 437.891 832.8 437.191 848.1C436.491 863.3 426.991 879.5 403.791 878.8Z" fill="#DAEEFF"/>
<path d="M410.391 805.299C410.091 804.999 409.591 804.999 409.291 805.299C408.991 805.699 408.991 806.099 409.391 806.399C409.391 806.499 413.991 811.099 413.591 827.099C413.091 840.799 405.991 862.099 403.691 868.599C401.591 863.599 398.891 857.999 396.591 853.399C394.991 850.199 393.691 847.499 392.891 845.799C390.291 839.499 394.291 826.399 394.391 826.199C394.491 825.799 394.291 825.399 393.891 825.299C393.491 825.099 392.991 825.399 392.891 825.799C392.691 826.299 388.591 839.599 391.491 846.399C392.291 848.199 393.591 850.899 395.191 854.099C399.391 862.599 405.691 875.399 405.591 880.399C405.491 887.299 404.691 897.199 404.691 897.299C404.591 897.799 404.891 898.099 405.391 898.199C405.791 898.199 406.191 897.899 406.191 897.499C406.191 897.399 407.091 887.399 407.191 880.399C407.191 878.199 406.191 874.699 404.591 870.799C405.691 867.899 414.691 842.799 415.091 827.099C415.591 810.299 410.591 805.499 410.391 805.299Z" fill="#6AC1FF"/>
<path d="M1309.49 624.299C1294.19 623.899 1277.69 618.499 1277.99 593.999C1278.39 569.399 1296.19 565.599 1297.99 547.199C1299.79 528.799 1299.89 511.699 1309.49 511.599C1319.09 511.399 1313.09 519.199 1317.49 527.799C1321.99 536.299 1330.59 547.199 1328.99 563.099C1327.29 578.999 1338.59 585.099 1337.99 598.099C1337.39 611.099 1329.29 624.899 1309.49 624.299Z" fill="#DAEEFF"/>
<path d="M1315.19 561.599C1314.89 561.399 1314.49 561.399 1314.19 561.699C1313.99 561.899 1313.99 562.399 1314.29 562.599C1314.29 562.699 1318.29 566.599 1317.79 580.199C1317.49 591.899 1311.39 610.099 1309.49 615.599C1307.69 611.299 1305.29 606.599 1303.39 602.599C1301.99 599.899 1300.89 597.599 1300.29 596.199C1297.99 590.799 1301.49 579.599 1301.49 579.499C1301.59 579.099 1301.39 578.799 1301.09 578.699C1300.69 578.599 1300.29 578.699 1300.19 579.099C1300.09 579.599 1296.59 590.899 1299.09 596.699C1299.69 598.199 1300.79 600.499 1302.19 603.199C1305.79 610.499 1311.19 621.399 1311.09 625.599C1310.99 631.499 1310.29 639.999 1310.29 640.099C1310.19 640.499 1310.49 640.799 1310.89 640.799C1311.29 640.799 1311.59 640.599 1311.59 640.199C1311.59 640.099 1312.29 631.599 1312.39 625.699C1312.49 623.799 1311.59 620.799 1310.19 617.399C1311.09 614.999 1318.79 593.599 1319.19 580.199C1319.59 565.899 1315.39 561.799 1315.19 561.599Z" fill="#6AC1FF"/>
<path d="M528.292 654.5C517.792 654.2 506.392 650.5 506.592 633.6C506.892 616.7 519.092 614.1 520.392 601.4C521.592 588.8 521.692 577 528.292 576.9C534.892 576.8 530.692 582.2 533.792 588C536.892 593.9 542.792 601.4 541.692 612.3C540.492 623.3 548.292 627.5 547.892 636.4C547.492 645.4 541.892 654.9 528.292 654.5Z" fill="#DAEEFF"/>
<path d="M532.191 611.4C531.991 611.2 531.691 611.2 531.491 611.4C531.391 611.6 531.391 611.9 531.591 612C531.591 612.1 534.291 614.8 533.991 624.1C533.791 632.2 529.591 644.7 528.291 648.5C526.991 645.5 525.391 642.3 524.091 639.5C523.091 637.7 522.391 636.1 521.891 635.1C520.391 631.4 522.691 623.7 522.791 623.6C522.791 623.4 522.691 623.1 522.491 623.1C522.191 623 521.991 623.1 521.891 623.4C521.791 623.7 519.391 631.5 521.091 635.5C521.491 636.5 522.291 638.1 523.191 640C525.691 644.9 529.391 652.5 529.391 655.4C529.291 659.4 528.791 665.3 528.791 665.3C528.791 665.6 528.991 665.8 529.191 665.8C529.191 665.8 529.225 665.8 529.291 665.8C529.491 665.8 529.691 665.6 529.691 665.4C529.691 665.3 530.191 659.5 530.291 655.4C530.291 654.1 529.691 652 528.791 649.7C529.391 648.1 534.691 633.3 534.891 624.2C535.191 614.3 532.291 611.5 532.191 611.4Z" fill="#6AC1FF"/>
<path d="M1642.79 850.299C1624.39 849.699 1604.49 843.199 1604.89 813.699C1605.29 784.199 1626.79 779.599 1628.99 757.499C1631.19 735.399 1631.29 714.899 1642.79 714.699C1654.29 714.399 1646.99 723.899 1652.39 734.099C1657.79 744.399 1668.19 757.499 1666.19 776.599C1664.19 795.699 1677.79 803.099 1677.09 818.699C1676.29 834.399 1666.59 850.999 1642.79 850.299Z" fill="#DAEEFF"/>
<path d="M1649.59 774.9C1649.29 774.6 1648.79 774.6 1648.49 774.9C1648.19 775.2 1648.19 775.7 1648.49 776C1648.49 776.1 1653.29 780.9 1652.79 797.2C1652.39 811.3 1645.09 833.1 1642.69 839.7C1640.59 834.6 1637.79 828.9 1635.39 824.1C1633.79 820.9 1632.39 818.1 1631.69 816.4C1628.89 810 1633.09 796.5 1633.09 796.3C1633.29 795.9 1632.99 795.5 1632.59 795.3C1632.19 795.2 1631.69 795.4 1631.59 795.9C1631.39 796.4 1627.19 810 1630.19 817C1630.99 818.8 1632.39 821.6 1633.99 824.9C1638.29 833.6 1644.79 846.7 1644.69 851.8C1644.49 858.9 1643.69 869.1 1643.69 869.2C1643.59 869.6 1643.99 870 1644.39 870.1C1644.39 870.1 1644.43 870.1 1644.49 870.1C1644.89 870.1 1645.19 869.8 1645.29 869.3C1645.29 869.2 1646.09 859 1646.29 851.9C1646.29 849.6 1645.19 846 1643.59 842C1644.69 839.1 1653.89 813.3 1654.39 797.2C1654.89 780 1649.79 775.1 1649.59 774.9Z" fill="#6AC1FF"/>
<path d="M1562.09 1080.6C1562.09 1101 1319.49 1117.5 1020.09 1117.5C720.792 1117.5 478.092 1101 478.092 1080.6C478.092 1060.2 720.792 1043.7 1020.09 1043.7C1319.49 1043.7 1562.09 1060.2 1562.09 1080.6Z" fill="url(#paint1_radial_204_23487)"/>
<path fill-rule="evenodd" clip-rule="evenodd" d="M812.692 968.5H758.792V1071.1H666.992V968.5H478.092V886.5L653.492 597H758.792V895.1H812.692V968.5ZM666.992 895.1V689.7L547.892 895.1H666.992Z" fill="#CA3131"/>
<path fill-rule="evenodd" clip-rule="evenodd" d="M1148.39 654.9C1172.86 697.7 1185.09 758.466 1185.09 837.2C1185.09 915.933 1172.86 976.566 1148.39 1019.1C1123.99 1061.63 1081.39 1082.9 1020.59 1082.9C959.858 1082.9 917.258 1061.63 892.792 1019.1C868.325 976.566 856.092 915.933 856.092 837.2C856.092 758.466 868.325 697.7 892.792 654.9C917.258 612.166 959.858 590.8 1020.59 590.8C1081.39 590.8 1123.99 612.166 1148.39 654.9ZM965.392 963C974.325 992.066 992.725 1006.6 1020.59 1006.6C1048.46 1006.6 1066.73 992.066 1075.39 963C1084.06 933.933 1088.39 892 1088.39 837.2C1088.39 779.733 1084.06 737.166 1075.39 709.5C1066.73 681.9 1048.46 668.1 1020.59 668.1C992.725 668.1 974.325 681.9 965.392 709.5C956.392 737.166 951.892 779.733 951.892 837.2C951.892 892 956.392 933.933 965.392 963Z" fill="#CA3131"/>
<path fill-rule="evenodd" clip-rule="evenodd" d="M1562.09 968.5H1508.19V1071.1H1416.39V968.5H1227.59V886.5L1402.89 597H1508.19V895.1H1562.09V968.5ZM1416.39 895.1V689.7L1297.29 895.1H1416.39Z" fill="#CA3131"/>
<path opacity="0.1" d="M921.092 307.099C928.992 332.199 914.992 358.899 889.892 366.699C864.792 374.599 838.092 360.599 830.192 335.499C822.392 310.399 836.392 283.699 861.492 275.799C886.592 267.999 913.292 281.999 921.092 307.099Z" fill="white"/>
<path opacity="0.2" d="M905.592 306.699C903.892 306.699 902.292 305.599 901.792 303.799C900.092 298.399 896.392 293.999 891.392 291.399C886.292 288.699 880.592 288.199 875.192 289.899C872.992 290.599 870.792 289.399 870.092 287.199C869.392 285.099 870.592 282.899 872.792 282.199C880.192 279.899 888.192 280.599 895.092 284.199C901.992 287.799 907.092 293.999 909.492 301.399C910.092 303.599 908.992 305.799 906.792 306.499C906.392 306.633 905.992 306.699 905.592 306.699Z" fill="#F78C0D"/>
<path fill-rule="evenodd" clip-rule="evenodd" d="M930.092 304.3C939.492 334.3 922.692 366.3 892.692 375.7C862.592 385.1 830.692 368.3 821.292 338.3C811.892 308.2 828.592 276.2 858.692 266.9C888.692 257.5 920.692 274.2 930.092 304.3ZM921.092 307.1C913.292 282 886.592 268 861.492 275.8C836.392 283.7 822.392 310.4 830.192 335.5C838.092 360.6 864.793 374.6 889.893 366.7C914.993 358.9 928.992 332.2 921.092 307.1Z" fill="#D0DAED"/>
<path d="M910.292 415.599L900.893 418.499L887.393 375.399L896.893 372.399L910.292 415.599Z" fill="#D0DAED"/>
<path d="M929.792 494.5C923.692 496.4 917.293 493 915.393 486.9L894.692 420.6C893.692 417.4 895.492 414 898.692 413L908.992 409.8C912.192 408.8 915.592 410.6 916.592 413.8L937.292 480.1C939.192 486.1 935.792 492.6 929.792 494.5Z" fill="url(#paint2_linear_204_23487)"/>
<path d="M933.791 465.3C933.791 465.3 912.391 452.2 905.991 445.4C899.591 438.6 896.891 435.5 898.491 434C900.191 432.6 918.191 440.5 919.891 439.2C921.691 437.9 920.091 434.5 922.091 433C923.991 431.5 935.691 443.5 938.391 442.6C941.191 441.7 936.991 463.2 933.791 465.3Z" fill="#FFAA9D"/>
<path d="M848.693 710.4L832.993 725.5L793.393 688.8L806.393 667.6L848.693 710.4Z" fill="#FFAA9D"/>
<path d="M835.292 723.3C835.292 723.3 824.393 737 822.393 737C820.293 737 774.492 687.5 774.792 685.9C775.092 684.3 795.093 686 795.093 686L835.292 723.3Z" fill="url(#paint3_linear_204_23487)"/>
<path d="M803.992 665.4C803.992 665.4 849.792 713.3 851.592 713.3C853.392 713.3 1072.09 545.4 1072.09 545.4L979.392 504.3C979.392 504.3 861.692 536.6 803.992 665.4Z" fill="url(#paint4_linear_204_23487)"/>
<path d="M1011.59 679.8L1019.39 700.1L969.991 722.1L955.691 701.8L1011.59 679.8Z" fill="#FFAA9D"/>
<path d="M972.191 504.3C972.191 504.3 894.791 520.4 887.991 546.6C881.291 572.8 887.391 601.5 908.791 635C930.091 668.5 951.791 705 956.291 706.2C956.291 706.2 1013.59 683.2 1014.89 680.3C1016.19 677.5 982.791 598.6 982.791 598.6C982.791 598.6 1050.79 594.1 1066.69 553.9L972.191 504.3Z" fill="url(#paint5_linear_204_23487)"/>
<path d="M966.692 504C965.992 508.6 1050.59 561.5 1065.59 559C1080.49 556.4 1099.89 494.7 1094.49 448.5C1089.19 402.4 1047.89 367.8 1028.99 369.4C1010.19 371.1 1000.09 388.7 997.492 416.8C993.792 458 967.492 498.9 966.692 504Z" fill="url(#paint6_linear_204_23487)"/>
<path d="M1037.49 376.499C1047.39 375.699 1081.69 395.799 1089.69 455.099C1097.79 514.399 1064.99 519.399 1037.49 515.599C1009.89 511.699 940.691 477.699 930.491 465.599C930.491 465.599 928.291 446.499 935.691 439.699C935.691 439.699 1002.49 446.499 1019.89 451.699C1037.19 456.899 999.691 379.799 1037.49 376.499Z" fill="url(#paint7_linear_204_23487)"/>
<path d="M1018.19 697.1C1018.19 697.1 1026.49 712.5 1025.69 714.4C1024.89 716.3 961.391 738.9 960.091 738C958.691 737.1 968.091 719.4 968.091 719.4L1018.19 697.1Z" fill="url(#paint8_linear_204_23487)"/>
<path d="M981.491 338L981.191 359.2L984.291 359.1C984.291 359.1 986.891 376.6 999.291 373.9C1002.79 373.1 1007.39 370.1 1008.69 370.7C1010.19 371.4 1010.89 376.2 1011.19 377.6C1012.59 382.9 1031.19 377.5 1028.19 372.1C1025.29 366.9 1020.99 359.8 1021.89 357.9C1025.09 351.1 1025.99 334.1 1008.89 328.4C995.291 323.9 981.591 330.7 981.491 338Z" fill="#FFAA9D"/>
<path d="M1028.19 372.099C1025.29 366.899 1020.99 359.799 1021.89 357.899C1021.89 357.899 1014.79 368.899 1008.09 370.599C1008.29 370.599 1008.49 370.633 1008.69 370.699C1010.19 371.399 1010.89 376.199 1011.19 377.599C1012.59 382.899 1031.19 377.499 1028.19 372.099Z" fill="#FF9F91"/>
<path d="M1010.19 348.399C1018.09 346.999 1013.19 364.799 1021.99 364.199C1030.79 363.599 1036.89 344.399 1030.49 329.599C1023.99 314.699 1011.69 315.599 999.992 317.599C988.292 319.599 973.992 324.899 973.992 333.799C973.992 355.099 999.192 337.199 1000.89 343.599C1002.09 348.499 1004.09 362.899 998.992 363.199C993.892 363.499 988.592 359.299 984.592 360.399C982.192 360.999 975.792 388.899 992.592 389.899C1009.19 390.799 1013.39 376.099 1009.89 364.099C1006.59 352.799 1006.29 349.099 1010.19 348.399Z" fill="#14336A"/>
<defs>
<linearGradient id="paint0_linear_204_23487" x1="2.95943e+06" y1="289586" x2="2.95943e+06" y2="640560" gradientUnits="userSpaceOnUse">
<stop stop-color="#E9F3FC"/>
<stop offset="1" stop-color="white"/>
</linearGradient>
<radialGradient id="paint1_radial_204_23487" cx="0" cy="0" r="1" gradientUnits="userSpaceOnUse" gradientTransform="translate(1.70561e+06 97315.9) scale(608666 41438.7)">
<stop stop-color="#D0DFF3"/>
<stop offset="0.99" stop-color="#D0DFF3"/>
</radialGradient>
<linearGradient id="paint2_linear_204_23487" x1="71061.3" y1="51147.2" x2="72764.9" y2="53918.8" gradientUnits="userSpaceOnUse">
<stop stop-color="#F2C43C"/>
<stop offset="0.55" stop-color="#FFAC00"/>
</linearGradient>
<linearGradient id="paint3_linear_204_23487" x1="83165.7" y1="47070" x2="81734.7" y2="49152.5" gradientUnits="userSpaceOnUse">
<stop stop-color="#14336D"/>
<stop offset="0.97" stop-color="#0E2253"/>
</linearGradient>
<linearGradient id="paint4_linear_204_23487" x1="398611" y1="211302" x2="416159" y2="193151" gradientUnits="userSpaceOnUse">
<stop stop-color="#14336D"/>
<stop offset="0.97" stop-color="#0E2253"/>
</linearGradient>
<linearGradient id="paint5_linear_204_23487" x1="267885" y1="192410" x2="299246" y2="202618" gradientUnits="userSpaceOnUse">
<stop stop-color="#14336D"/>
<stop offset="0.97" stop-color="#0E2253"/>
</linearGradient>
<linearGradient id="paint6_linear_204_23487" x1="179667" y1="129050" x2="196049" y2="149879" gradientUnits="userSpaceOnUse">
<stop stop-color="#3162DF"/>
<stop offset="0.96" stop-color="#173DB8"/>
</linearGradient>
<linearGradient id="paint7_linear_204_23487" x1="238916" y1="97582.2" x2="251318" y2="127584" gradientUnits="userSpaceOnUse">
<stop stop-color="#3162DF"/>
<stop offset="0.96" stop-color="#173DB8"/>
</linearGradient>
<linearGradient id="paint8_linear_204_23487" x1="100536" y1="38557.9" x2="101175" y2="40485.2" gradientUnits="userSpaceOnUse">
<stop stop-color="#14336D"/>
<stop offset="0.97" stop-color="#0E2253"/>
</linearGradient>
</defs>
</svg>
