<svg width="31" height="31" viewBox="0 0 31 31" fill="none" xmlns="http://www.w3.org/2000/svg">
<path d="M31 7.41344V23.5873C31 25.0761 29.7931 26.283 28.3043 26.283H2.69567C1.20688 26.283 0 25.0761 0 23.5873V7.41344C0 5.92471 1.20688 4.71777 2.69567 4.71777H28.3044C29.7931 4.71777 31 5.92471 31 7.41344Z" fill="#FE7D49"/>
<path d="M31 10.7822V23.5866C31 25.0753 29.7931 26.2822 28.3043 26.2822H2.69567C1.20688 26.2822 0 25.0753 0 23.5866V10.7822H31Z" fill="#FE5A3A"/>
<path d="M9.3878 13.4782H4.08953C3.69167 13.4782 3.36914 13.1557 3.36914 12.7578V8.8073C3.36914 8.40945 3.69167 8.08691 4.08953 8.08691H9.38774C9.7856 8.08691 10.1081 8.40945 10.1081 8.8073V12.7577C10.1082 13.1557 9.78566 13.4782 9.3878 13.4782Z" fill="#FED76E"/>
<path d="M10.1083 10.7822V12.7574C10.1083 13.1553 9.78572 13.4778 9.38786 13.4778H4.08953C3.69167 13.4778 3.36914 13.1553 3.36914 12.7574V10.7822H10.1083Z" fill="#FEAF50"/>
<path d="M7.91767 20.8912C7.91767 21.1703 7.69135 21.3966 7.41223 21.3966H3.36873C3.08961 21.3966 2.86328 21.1703 2.86328 20.8912C2.86328 20.6121 3.08961 20.3857 3.36873 20.3857H7.41223C7.69135 20.3858 7.91767 20.6121 7.91767 20.8912ZM14.1513 20.3858H10.1078C9.82871 20.3858 9.60239 20.6121 9.60239 20.8912C9.60239 21.1704 9.82871 21.3967 10.1078 21.3967H14.1513C14.4305 21.3967 14.6568 21.1704 14.6568 20.8912C14.6568 20.6121 14.4305 20.3858 14.1513 20.3858ZM20.8904 20.3858H16.8469C16.5678 20.3858 16.3415 20.6121 16.3415 20.8912C16.3415 21.1704 16.5678 21.3967 16.8469 21.3967H20.8904C21.1696 21.3967 21.3959 21.1704 21.3959 20.8912C21.3959 20.6121 21.1696 20.3858 20.8904 20.3858ZM27.6296 20.3858H23.5861C23.307 20.3858 23.0807 20.6121 23.0807 20.8912C23.0807 21.1704 23.307 21.3967 23.5861 21.3967H27.6296C27.9087 21.3967 28.1351 21.1704 28.1351 20.8912C28.1351 20.6121 27.9087 20.3858 27.6296 20.3858Z" fill="#A62C18"/>
<path d="M7.07736 11.7933H6.40347C5.84523 11.7933 5.39258 11.3407 5.39258 10.7824C5.39258 10.2241 5.84517 9.77148 6.40347 9.77148H7.07736C7.6356 9.77148 8.08825 10.2241 8.08825 10.7824C8.08819 11.3406 7.6356 11.7933 7.07736 11.7933Z" fill="#FEE66B"/>
<path d="M24.1603 10.7819C24.1603 11.061 23.934 11.2874 23.6549 11.2874H23.5875C23.3084 11.2874 23.082 11.061 23.082 10.7819C23.082 10.5028 23.3084 10.2765 23.5875 10.2765H23.6549C23.934 10.2765 24.1603 10.5028 24.1603 10.7819ZM25.2561 9.17852C25.0147 9.03865 24.7053 9.12094 24.5653 9.36252C24.4254 9.60404 24.5077 9.91331 24.7493 10.0533C25.0095 10.2041 25.1712 10.4832 25.1712 10.782C25.1712 11.0807 25.0096 11.3599 24.7493 11.5107C24.5078 11.6506 24.4254 11.9599 24.5653 12.2014C24.659 12.3632 24.8287 12.4536 25.0031 12.4536C25.0891 12.4536 25.1762 12.4316 25.256 12.3854C25.8272 12.0546 26.182 11.4401 26.182 10.782C26.182 10.124 25.8272 9.50941 25.2561 9.17852ZM26.6037 8.01039C26.3622 7.8707 26.0529 7.95305 25.9131 8.19469C25.7732 8.43627 25.8557 8.74549 26.0974 8.88529C26.7732 9.2763 27.193 10.003 27.193 10.7819C27.193 11.5607 26.7732 12.2875 26.0974 12.6786C25.8559 12.8184 25.7733 13.1276 25.9131 13.3691C26.0068 13.5311 26.1766 13.6215 26.3511 13.6215C26.437 13.6215 26.5241 13.5995 26.6038 13.5535C27.5908 12.9823 28.2039 11.9203 28.2039 10.7819C28.2039 9.6434 27.5907 8.58152 26.6037 8.01039Z" fill="#D4E8FF"/>
</svg>
